# xmcd
#
# Track frame offsets:
# 150
# 20219
# 37828
# 61990
# 91786
# 109030
# 139926
# 169504
# 191535
# 212867
# 229402
#
# Disc length: 3395 seconds
#
#
# Revision: 0
# Processed by: cddbd v1.5.2PL0 Copyright (c) Steve Scherf et al.
# Submitted via: FreeRIP 2.944 
#
DISCID=930d410b
DTITLE=Zack Reynolds - With The Good News Blues
DYEAR=2004
DGENRE=Blues
TTITLE0=Good News Blues Medley
TTITLE1=Since My Jesus Moved In
TTITLE2=Down And Out
TTITLE3=When We Judge
TTITLE4=Time Keeps On Slippin By
TTITLE5=Weary Mind
TTITLE6=Never The Same
TTITLE7=I've Never Been To Seminary
TTITLE8=Help Me
TTITLE9=Praise Him
TTITLE10=Let Love Take Away Your Pain
EXTD=
EXTT0=
EXTT1=
EXTT2=
EXTT3=
EXTT4=
EXTT5=
EXTT6=
EXTT7=
EXTT8=
EXTT9=
EXTT10=
PLAYORDER=
